# xmcd
#
# Track frame offsets:
#	150
#	25245
#	43449
#	65603
#	92435
#	116989
#	137503
#	155862
#	175332
#	197525
#	222461
#	251705
#	278375
#	298805
#	318085
#
# Disc length: 4588 seconds
#
# Revision: 0
# Processed by: cddbd v1.5.1PL0 Copyright (c) Steve Scherf et al.
# Submitted via: audiograbber 1.83.01
#
DISCID=e611ea0f
DTITLE=Deep Purple -  Rapture Of The Deep
DYEAR=2005
DGENRE=Hard Rock
TTITLE0=Money Talks
TTITLE1=Girls Like That
TTITLE2=Wrong Man
TTITLE3=Rapture Of The Deep
TTITLE4=Clearly Quite Absurd
TTITLE5=Don't Let Go
TTITLE6=Back To Back
TTITLE7=Kiss Tomorrow Goodbye
TTITLE8=MTV
TTITLE9=Junkyard Blues
TTITLE10=Before Time Began
TTITLE11=Woman from Dokvo
TTITLE12=Space Druckin
TTITLE13=Hush
TTITLE14=Smoke on the water
EXTD=
EXTT0=
EXTT1=
EXTT2=
EXTT3=
EXTT4=
EXTT5=
EXTT6=
EXTT7=
EXTT8=
EXTT9=
EXTT10=
EXTT11=
EXTT12=
EXTT13=
EXTT14=
PLAYORDER=
